# xmcd CD database file
#
# Track frame offsets:
#	150
#	28730
#	63731
#	87444
#	118751
#	135999
#	155257
#	176295
#	208888
#	238586
#	273501
#	296521
#	322469
#	328212
#
# Disc length: 4458 seconds
#
# Revision: 0
# Processed by: cddbd v1.5.1PL0 Copyright (c) Steve Scherf et al.
# Submitted via: CDex 1.51
#
DISCID=d911680e
DTITLE=Lito Vitale - Vivo en Argentina
DYEAR=2005
DGENRE=Jazz
TTITLE0=Antes de la razón
TTITLE1=Cuentos de la media luna
TTITLE2=Estar entre nosotros
TTITLE3=La única mirada
TTITLE4=Introducción porteña
TTITLE5=El discreto encanto de ser porteño
TTITLE6=Los cambios necesarios
TTITLE7=Recuerdos en mi bemol
TTITLE8=El principio del cielo
TTITLE9=Ese amigo del alma
TTITLE10=El día que me quieras
TTITLE11=Buenos momentos
TTITLE12=Hombres de honor
TTITLE13=Sin código
EXTD=YEAR: 2005
EXTT0=
EXTT1=
EXTT2=
EXTT3=
EXTT4=
EXTT5=
EXTT6=
EXTT7=
EXTT8=
EXTT9=
EXTT10=
EXTT11=
EXTT12=
EXTT13=
PLAYORDER=
